<?xml version="1.0" encoding="utf-8"?>
<!-- Generator: Adobe Illustrator 16.0.0, SVG Export Plug-In . SVG Version: 6.00 Build 0)  -->
<!DOCTYPE svg PUBLIC "-//W3C//DTD SVG 1.1//EN" "http://www.w3.org/Graphics/SVG/1.1/DTD/svg11.dtd">
<svg version="1.1" id="Layer_1" xmlns="http://www.w3.org/2000/svg" xmlns:xlink="http://www.w3.org/1999/xlink" x="0px" y="0px"
	 width="150px" height="150px" viewBox="0 0 150 150" enable-background="new 0 0 150 150" xml:space="preserve">
<g>
	<circle fill="#FFFFFF" cx="75.418" cy="75.775" r="75"/>
	<path fill="#2D2D37" d="M88.77,45.071c4.579,0,10.63,0,10.63,0V29.208c0,0-6.378,0-15.046,0c-8.667,0-19.951,5.561-19.951,21.75
		c0,3.027,0,7.432,0,12.593H50.011v16.436h14.391c0,20.467,0,42.765,0,42.765h6.378h5.07h5.724c0,0,0-23.099,0-42.765h14.309
		l2.372-16.436H81.574c0-5.4,0-9.303,0-10.467C81.574,47.688,84.19,45.071,88.77,45.071z"/>
</g>
</svg>
