<?xml version="1.0" encoding="utf-8"?>
<!-- Generator: Adobe Illustrator 16.0.0, SVG Export Plug-In . SVG Version: 6.00 Build 0)  -->
<!DOCTYPE svg PUBLIC "-//W3C//DTD SVG 1.1//EN" "http://www.w3.org/Graphics/SVG/1.1/DTD/svg11.dtd">
<svg version="1.1" id="Layer_1" xmlns="http://www.w3.org/2000/svg" xmlns:xlink="http://www.w3.org/1999/xlink" x="0px" y="0px"
	 width="150px" height="150px" viewBox="0 0 150 150" enable-background="new 0 0 150 150" xml:space="preserve">
<g>
	<circle fill="#FFFFFF" cx="75.5" cy="75.775" r="75"/>
	<g>
		<path fill="#2D2D37" d="M100.01,35.84H50.979c-8.517,0-15.484,6.967-15.484,15.483v49.032c0,8.516,6.968,15.484,15.484,15.484
			h49.031c8.517,0,15.484-6.969,15.484-15.484V51.323C115.494,42.807,108.526,35.84,100.01,35.84z M50.979,42.291h49.031
			c4.98,0,9.033,4.052,9.033,9.032v10.241H85.068c-2.805-1.66-6.077-2.617-9.574-2.617s-6.77,0.957-9.574,2.617H41.945V51.323
			C41.945,46.343,45.998,42.291,50.979,42.291z M84.521,77.775c0,4.986-4.042,9.027-9.027,9.027s-9.027-4.041-9.027-9.027
			s4.042-9.027,9.027-9.027S84.521,72.789,84.521,77.775z M100.01,109.388H50.979c-4.98,0-9.033-4.052-9.033-9.032v-32.34h17.443
			c-1.728,2.846-2.724,6.188-2.724,9.76c0,10.398,8.431,18.828,18.829,18.828s18.829-8.43,18.829-18.828
			c0-3.572-0.996-6.914-2.724-9.76h17.443v32.34C109.043,105.336,104.99,109.388,100.01,109.388z"/>
		<path fill="#2D2D37" d="M97.272,57.932h3.383c2.129,0,3.871-1.741,3.871-3.87v-3.384c0-2.129-1.742-3.871-3.871-3.871h-3.383
			c-2.129,0-3.871,1.742-3.871,3.871v3.384C93.401,56.19,95.144,57.932,97.272,57.932z"/>
	</g>
</g>
</svg>
