<?xml version="1.0" encoding="utf-8"?>
<!-- Generator: Adobe Illustrator 16.0.0, SVG Export Plug-In . SVG Version: 6.00 Build 0)  -->
<!DOCTYPE svg PUBLIC "-//W3C//DTD SVG 1.1//EN" "http://www.w3.org/Graphics/SVG/1.1/DTD/svg11.dtd">
<svg version="1.1" id="Layer_1" xmlns="http://www.w3.org/2000/svg" xmlns:xlink="http://www.w3.org/1999/xlink" x="0px" y="0px"
	 width="150px" height="150px" viewBox="0 0 150 150" enable-background="new 0 0 150 150" xml:space="preserve">
<g>
	<circle fill="#FFFFFF" cx="75.418" cy="75.775" r="75"/>
	<path id="linkedin-square-rounded-icon_2_" fill="#2D2D37" d="M55.139,109.675H39.939V60.574h15.199V109.675z M47.466,54.143
		c-4.964,0-8.987-4.055-8.987-9.06c0-5.003,4.023-9.06,8.987-9.06s8.987,4.057,8.987,9.06C56.453,50.088,52.43,54.143,47.466,54.143
		z M112.094,109.675H96.969c0,0,0-18.704,0-25.775c0-7.067-2.686-11.015-8.275-11.015c-6.083,0-9.26,4.109-9.26,11.015
		c0,7.563,0,25.775,0,25.775H64.856V60.574h14.577v6.612c0,0,4.383-8.112,14.796-8.112c10.41,0,17.864,6.359,17.864,19.512
		C112.094,91.736,112.094,109.675,112.094,109.675z"/>
</g>
</svg>
