<?xml version="1.0" encoding="utf-8"?>
<!-- Generator: Adobe Illustrator 16.0.0, SVG Export Plug-In . SVG Version: 6.00 Build 0)  -->
<!DOCTYPE svg PUBLIC "-//W3C//DTD SVG 1.1//EN" "http://www.w3.org/Graphics/SVG/1.1/DTD/svg11.dtd">
<svg version="1.1" id="Layer_1" xmlns="http://www.w3.org/2000/svg" xmlns:xlink="http://www.w3.org/1999/xlink" x="0px" y="0px"
	 width="599px" height="132px" viewBox="0 0 599 132" enable-background="new 0 0 599 132" xml:space="preserve">
<g>
	<defs>
		<rect id="SVGID_1_" width="599" height="132"/>
	</defs>
	<clipPath id="SVGID_2_">
		<use xlink:href="#SVGID_1_"  overflow="visible"/>
	</clipPath>
	<path clip-path="url(#SVGID_2_)" fill-rule="evenodd" clip-rule="evenodd" fill="#231F20" d="M99.184,15.471
		c36.825,19.951,29.121,13.88,31.24,50.774c0,39.901,1.75,30.609-31.24,50.774c-36.828,19.951-27.373,16.726-62.482,0
		C-0.125,97.07,7.58,103.139,5.462,66.245c0-39.901-1.752-30.607,31.24-50.774C73.529-4.479,64.076-1.254,99.184,15.471
		 M70.488,53.715v33.714c0,1.438,0.402,2.379,1.208,2.824c0.807,0.446,1.969,0.669,3.486,0.669c1.566,0,2.751-0.223,3.558-0.669
		c0.807-0.445,1.21-1.386,1.21-2.824V68.4l38.778,21.482c0.665,0.397,1.391,0.668,2.171,0.816c0.782,0.149,0.378,0.327,1.991,0.327
		c1.044,0,1.95-0.289,2.705-0.855c0.759-0.569,1.139-1.425,1.139-2.565c0-1.484-0.781-2.589-2.276-3.419L86.78,63.271l37.996-19.997
		c1.52-0.792,2.278-1.93,2.278-3.417c0-1.141-0.38-1.996-1.139-2.565s-1.66-0.856-2.704-0.856c-1.613,0-2.81,0.076-3.594,0.224
		c-0.784,0.148-1.505,0.42-2.171,0.816L79.951,58.588V39.931c0-1.437-0.404-2.379-1.21-2.825c-0.807-0.445-1.992-0.669-3.558-0.669
		c-1.518,0-2.68,0.224-3.486,0.669c-0.647,0.357-1.032,1.034-1.161,2.028L44.972,80.56L19.591,39.071
		c-1.102-1.747-2.557-2.618-4.359-2.618c-2.686,0-4.026,1.696-4.026,5.084v45.75c0,1.448,0.311,2.396,0.938,2.844
		c0.625,0.447,1.527,0.672,2.706,0.672c1.211,0,2.131-0.225,2.755-0.672c0.626-0.447,0.94-1.396,0.94-2.844V51.854l22.068,36.107
		c0.59,0.998,1.241,1.723,1.958,2.17c0.719,0.447,1.613,0.672,2.679,0.672c0.957,0,1.765-0.225,2.428-0.672s1.304-1.172,1.931-2.17
		L70.488,53.715z"/>
	<path clip-path="url(#SVGID_2_)" fill-rule="evenodd" clip-rule="evenodd" fill="#231F20" d="M82.636,125.919
		c-18.296,9.347-17.467,4.663-45.934-8.899C-0.125,97.07,7.58,103.139,5.462,66.246c0-25.234-0.697-30.794,7.133-36.569
		c18.294-9.346,17.468-4.662,45.934,8.899c3.468,1.879,6.541,3.527,9.266,5L44.972,80.562L19.591,39.07
		c-1.102-1.744-2.557-2.617-4.359-2.617c-2.686,0-4.026,1.695-4.026,5.084v45.75c0,1.445,0.311,2.393,0.938,2.843
		c0.625,0.447,1.527,0.672,2.706,0.672c1.211,0,2.131-0.225,2.755-0.672c0.626-0.45,0.94-1.397,0.94-2.843V51.853l22.068,36.109
		c0.59,0.997,1.241,1.719,1.958,2.169c0.719,0.447,1.613,0.672,2.679,0.672c0.957,0,1.765-0.225,2.428-0.672
		c0.663-0.45,1.304-1.172,1.931-2.169l20.88-34.247V87.43c0,1.438,0.402,2.379,1.208,2.825c0.807,0.444,1.969,0.667,3.486,0.667
		c1.566,0,2.751-0.223,3.558-0.667c0.807-0.446,1.21-1.388,1.21-2.825V68.4l9.317,5.162c0.062,4.193,0.13,9.331,0.502,15.787
		C89.77,114.585,90.464,120.144,82.636,125.919 M79.951,50.576v8.012l5.709-3.215C84.333,53.772,82.496,52.258,79.951,50.576
		 M88.655,62.285l-1.875,0.987l2.157,1.197C88.864,63.697,88.771,62.971,88.655,62.285"/>
	<path clip-path="url(#SVGID_2_)" fill-rule="evenodd" clip-rule="evenodd" fill="#231F20" d="M219.809,17.063
		c0.68-0.756,1.433-1.295,2.261-1.614c0.829-0.319,1.752-0.478,2.772-0.478c3.143,0,4.716,1.356,4.716,4.066v36.59
		c0,1.156-0.363,1.912-1.084,2.273c-0.722,0.358-1.785,0.538-3.187,0.538c-1.4,0-2.462-0.179-3.185-0.538
		c-0.723-0.361-1.084-1.117-1.084-2.273v-28.34l-25.423,28.877c-0.722,0.798-1.465,1.375-2.229,1.735
		c-0.768,0.358-1.701,0.538-2.804,0.538c-1.232,0-2.262-0.179-3.091-0.538c-0.827-0.361-1.583-0.937-2.263-1.735l-25.486-28.877
		v28.34c0,1.156-0.361,1.912-1.084,2.273c-0.722,0.358-1.784,0.538-3.185,0.538c-1.36,0-2.401-0.179-3.124-0.538
		c-0.722-0.361-1.082-1.117-1.082-2.273v-36.59c0-2.71,1.55-4.066,4.65-4.066c2.081,0,3.759,0.698,5.034,2.092l29.312,33.184
		L219.809,17.063z M252.622,58.199c-12.02,0-18.03-3.468-18.03-10.405v-3.167c0-6.937,6.01-10.404,18.03-10.404h27.273v-0.059
		c0-1.156-0.797-2.064-2.39-2.721c-1.593-0.658-4.195-0.986-7.805-0.986h-5.99c-0.977,0-1.613-0.25-1.912-0.747
		c-0.297-0.499-0.447-1.245-0.447-2.242c0-1.037,0.15-1.804,0.447-2.302c0.298-0.498,0.935-0.746,1.912-0.746h6.244
		c12.022,0,18.034,3.467,18.034,10.402v12.973c0,6.937-6.011,10.405-18.034,10.405H252.622z M269.7,52.16
		c3.567,0,6.159-0.428,7.772-1.285c1.615-0.856,2.423-1.883,2.423-3.08v-7.772h-27.018c-3.568,0-6.159,0.419-7.773,1.256
		c-1.615,0.838-2.42,1.875-2.42,3.109v3.408c0,1.197,0.805,2.224,2.42,3.08c1.614,0.857,4.205,1.285,7.773,1.285H269.7z
		 M314.622,24.419c0.975,0,1.602,0.258,1.879,0.777c0.276,0.518,0.415,1.275,0.415,2.271c0,0.997-0.139,1.744-0.415,2.242
		c-0.277,0.498-0.904,0.747-1.879,0.747h-4.972c-3.143,0-5.332,0.379-6.563,1.137c-1.23,0.756-1.848,1.813-1.848,3.168v20.866
		c0,1.156-0.34,1.912-1.021,2.273c-0.679,0.358-1.698,0.538-3.058,0.538c-1.358,0-2.367-0.179-3.026-0.538
		c-0.659-0.361-0.987-1.117-0.987-2.273V34.762c0-3.467,1.412-6.059,4.236-7.773s6.913-2.57,12.265-2.57H314.622z M337.688,58.199
		c-12.022,0-18.032-3.468-18.032-10.405V34.821c0-6.935,6.01-10.402,18.032-10.402h31.858c0.976,0,1.613,0.248,1.912,0.746
		c0.298,0.498,0.445,1.265,0.445,2.302c0,0.997-0.147,1.744-0.445,2.242c-0.299,0.498-0.937,0.747-1.912,0.747H337.94
		c-3.566,0-6.157,0.419-7.772,1.255c-1.613,0.839-2.422,1.873-2.422,3.11v12.973c0,1.197,0.809,2.224,2.422,3.08
		c1.615,0.857,4.206,1.285,7.772,1.285h31.797c0.978,0,1.604,0.249,1.88,0.747c0.277,0.5,0.414,1.247,0.414,2.242
		c0,0.999-0.137,1.753-0.414,2.273c-0.276,0.518-0.902,0.778-1.88,0.778H337.688z M385.222,55.627c0,1.156-0.342,1.912-1.021,2.273
		c-0.679,0.358-1.699,0.538-3.058,0.538c-1.36,0-2.367-0.179-3.027-0.538c-0.657-0.361-0.987-1.117-0.987-2.273V27.406
		c0-1.155,0.33-1.911,0.987-2.271c0.66-0.358,1.667-0.537,3.027-0.537c1.358,0,2.379,0.179,3.058,0.537
		c0.679,0.36,1.021,1.116,1.021,2.271V55.627z M376.108,18.318c0-1.275,0.394-2.209,1.18-2.808c0.786-0.598,2.071-0.899,3.855-0.899
		c1.782,0,3.068,0.301,3.854,0.899c0.786,0.599,1.18,1.533,1.18,2.808c0,1.275-0.394,2.214-1.18,2.813
		c-0.785,0.599-2.071,0.896-3.854,0.896c-1.784,0-3.069-0.297-3.855-0.896C376.502,20.532,376.108,19.593,376.108,18.318
		 M394.97,58.438c-1.36,0-2.369-0.179-3.027-0.538c-0.657-0.361-0.985-1.117-0.985-2.273V34.821c0-6.935,6.011-10.402,18.029-10.402
		h13.893c12.02,0,18.032,3.467,18.032,10.402v20.806c0,1.156-0.339,1.912-1.021,2.273c-0.679,0.358-1.699,0.538-3.058,0.538
		c-1.36,0-2.369-0.179-3.026-0.538c-0.66-0.361-0.988-1.117-0.988-2.273V34.821c0-1.237-0.808-2.271-2.42-3.11
		c-1.617-0.836-4.206-1.255-7.776-1.255h-13.38c-3.567,0-6.159,0.419-7.773,1.255c-1.614,0.839-2.42,1.873-2.42,3.11v20.806
		c0,1.156-0.341,1.912-1.021,2.273C397.348,58.259,396.33,58.438,394.97,58.438"/>
	<path clip-path="url(#SVGID_2_)" fill-rule="evenodd" clip-rule="evenodd" fill="#231F20" d="M159.721,87.548l33.58-16.98
		c0.596-0.319,1.243-0.539,1.944-0.659c0.701-0.117,1.773-0.179,3.218-0.179c0.934,0,1.74,0.229,2.42,0.688s1.02,1.147,1.02,2.064
		c0,1.196-0.679,2.11-2.038,2.749L165.84,91.315l35.172,16.742c1.357,0.636,2.038,1.553,2.038,2.747c0,0.918-0.339,1.605-1.02,2.064
		c-0.68,0.457-1.487,0.688-2.42,0.688c-1.445,0-2.517-0.059-3.218-0.179c-0.701-0.121-1.349-0.34-1.943-0.659l-34.728-17.277v15.306
		c0,1.155-0.36,1.912-1.083,2.271c-0.721,0.36-1.783,0.539-3.186,0.539c-1.36,0-2.399-0.179-3.122-0.539
		c-0.723-0.358-1.083-1.115-1.083-2.271V72.54c0-1.155,0.361-1.913,1.083-2.271c0.722-0.36,1.762-0.539,3.122-0.539
		c1.402,0,2.465,0.179,3.186,0.539c0.723,0.358,1.083,1.116,1.083,2.271V87.548z M252.75,79.297c1.36,0,2.369,0.179,3.028,0.537
		c0.656,0.358,0.987,1.116,0.987,2.272v20.809c0,6.935-6.012,10.401-18.034,10.401h-15.227c-12.022,0-18.033-3.467-18.033-10.401
		V82.106c0-1.156,0.339-1.914,1.02-2.272s1.701-0.537,3.059-0.537c1.359,0,2.368,0.179,3.027,0.537
		c0.657,0.358,0.987,1.116,0.987,2.272v20.809c0,1.234,0.807,2.27,2.421,3.107s4.206,1.257,7.775,1.257h14.719
		c3.567,0,6.159-0.419,7.772-1.257c1.614-0.838,2.422-1.873,2.422-3.107V82.106c0-1.156,0.338-1.914,1.018-2.272
		S251.391,79.297,252.75,79.297 M283.719,79.535c0.976,0,1.602,0.261,1.879,0.778s0.415,1.275,0.415,2.272s-0.138,1.743-0.415,2.24
		c-0.277,0.5-0.903,0.746-1.879,0.746h-4.971c-3.144,0-5.331,0.38-6.562,1.139c-1.232,0.758-1.848,1.814-1.848,3.168v20.868
		c0,1.155-0.341,1.912-1.021,2.271c-0.68,0.36-1.698,0.539-3.058,0.539c-1.358,0-2.367-0.179-3.026-0.539
		c-0.658-0.358-0.987-1.115-0.987-2.271V89.879c0-3.466,1.412-6.059,4.235-7.772c2.827-1.714,6.915-2.571,12.267-2.571H283.719z
		 M298.246,120.55c0,1.159-0.34,1.916-1.02,2.276c-0.68,0.355-1.699,0.537-3.059,0.537c-1.359,0-2.369-0.182-3.026-0.537
		c-0.66-0.36-0.989-1.117-0.989-2.276V89.94c0-6.938,6.012-10.405,18.033-10.405h15.293c12.02,0,18.032,3.468,18.032,10.405v12.975
		c0,6.935-6.013,10.401-18.032,10.401h-25.232V120.55z M323.224,107.279c3.568,0,6.158-0.419,7.772-1.257
		c1.615-0.838,2.422-1.873,2.422-3.107V89.94c0-1.196-0.807-2.224-2.422-3.08c-1.614-0.857-4.204-1.288-7.772-1.288H308.44
		c-3.568,0-6.159,0.431-7.774,1.288c-1.613,0.856-2.42,1.884-2.42,3.08v17.339H323.224z M355.019,110.747
		c0,1.155-0.34,1.912-1.02,2.271c-0.681,0.36-1.699,0.539-3.06,0.539s-2.367-0.179-3.026-0.539
		c-0.658-0.358-0.986-1.115-0.986-2.271V82.526c0-1.156,0.328-1.914,0.986-2.274c0.659-0.356,1.666-0.536,3.026-0.536
		s2.379,0.18,3.06,0.536c0.68,0.36,1.02,1.118,1.02,2.274V110.747z M345.906,73.438c0-1.275,0.393-2.212,1.181-2.811
		c0.783-0.599,2.068-0.897,3.853-0.897c1.786,0,3.071,0.299,3.857,0.897c0.784,0.599,1.176,1.535,1.176,2.811
		s-0.392,2.211-1.176,2.81c-0.786,0.598-2.071,0.897-3.857,0.897c-1.784,0-3.069-0.3-3.853-0.897
		C346.299,75.648,345.906,74.713,345.906,73.438 M368.525,99.864v3.051c0,1.194,0.809,2.221,2.422,3.079
		c1.613,0.854,4.206,1.285,7.772,1.285h7.33c0.977,0,1.604,0.247,1.877,0.746c0.278,0.499,0.417,1.245,0.417,2.242
		s-0.139,1.755-0.417,2.272c-0.273,0.52-0.9,0.776-1.877,0.776h-7.584c-12.021,0-18.032-3.467-18.032-10.401V89.94
		c0-6.938,6.012-10.405,18.032-10.405h14.72c6.372,0,10.97,0.857,13.794,2.571c2.826,1.714,4.239,4.325,4.239,7.834v6.873
		c0,1.159-0.235,1.954-0.701,2.394c-0.469,0.438-1.508,0.657-3.123,0.657H368.525z M368.525,93.946h34.599V89.94
		c0-1.396-0.795-2.472-2.39-3.229c-1.591-0.759-4.192-1.139-7.804-1.139H378.72c-3.566,0-6.159,0.422-7.772,1.259
		c-1.613,0.835-2.422,1.87-2.422,3.109V93.946z M436.77,111.524c-0.766,1.354-2.294,2.032-4.589,2.032
		c-1.146,0-2.133-0.17-2.962-0.507c-0.829-0.34-1.437-0.888-1.816-1.645l-14.653-28.819c-0.258-0.399-0.384-0.778-0.384-1.137
		c0-0.677,0.402-1.205,1.211-1.583c0.807-0.378,1.868-0.569,3.185-0.569c1.869,0,3.015,0.457,3.443,1.377l11.915,25.11
		l13.379-24.155c0.511-0.917,1.051-1.534,1.625-1.854c0.572-0.319,1.412-0.479,2.517-0.479c0.638,0,1.157,0.049,1.562,0.148
		c0.404,0.103,0.743,0.24,1.019,0.421c0.276,0.178,0.521,0.416,0.734,0.715c0.212,0.301,0.424,0.649,0.638,1.048l12.869,24.155
		l12.172-25.11c0.425-0.92,1.593-1.377,3.502-1.377c1.319,0,2.381,0.191,3.188,0.569c0.805,0.378,1.211,0.906,1.211,1.583
		c0,0.358-0.128,0.737-0.382,1.137l-15.038,28.819c-0.383,0.757-0.988,1.305-1.815,1.645c-0.828,0.337-1.793,0.507-2.898,0.507
		c-1.063,0-2.008-0.159-2.839-0.479c-0.827-0.318-1.434-0.837-1.814-1.554l-12.232-23.317L436.77,111.524z M489.336,88.504
		c0-2.789,1.275-4.982,3.822-6.576c2.551-1.595,6.33-2.393,11.343-2.393h8.729c0.978,0,1.615,0.25,1.912,0.747
		c0.296,0.5,0.446,1.266,0.446,2.304c0,0.997-0.15,1.743-0.446,2.24c-0.297,0.5-0.935,0.746-1.912,0.746h-8.794
		c-2.419,0-4.205,0.271-5.352,0.809c-1.146,0.539-1.721,1.267-1.721,2.183v1.554c0,0.92,0.596,1.656,1.785,2.214
		c1.188,0.559,3.057,0.837,5.606,0.837h14.084c5.944,0,10.236,0.799,12.869,2.392c2.634,1.596,3.951,3.826,3.951,6.697v1.913
		c0,1.435-0.34,2.719-1.021,3.855c-0.679,1.136-1.738,2.092-3.183,2.87c-1.446,0.779-3.314,1.375-5.608,1.795
		c-2.294,0.416-5.034,0.626-8.22,0.626h-25.807c-0.976,0-1.613-0.248-1.909-0.747c-0.299-0.498-0.447-1.264-0.447-2.302
		c0-0.997,0.148-1.743,0.447-2.242c0.296-0.499,0.934-0.746,1.909-0.746h27.019c1.697,0,3.11-0.071,4.236-0.21
		c1.125-0.139,2.016-0.339,2.675-0.599c0.66-0.26,1.115-0.566,1.369-0.926c0.258-0.36,0.384-0.775,0.384-1.257v-2.151
		c0-0.478-0.126-0.897-0.384-1.255c-0.254-0.36-0.7-0.68-1.335-0.957c-0.638-0.279-1.499-0.489-2.583-0.629
		c-1.083-0.141-2.453-0.209-4.109-0.209H504.82c-5.139,0-9.005-0.786-11.596-2.36c-2.592-1.573-3.889-3.737-3.889-6.487V88.504z
		 M548.531,92.868l26.124-12.915c0.552-0.278,1.178-0.456,1.881-0.537c0.699-0.078,1.707-0.119,3.026-0.119
		c0.849,0,1.581,0.179,2.198,0.537c0.616,0.358,0.924,0.919,0.924,1.676c0,0.557-0.172,0.995-0.511,1.315
		c-0.34,0.318-0.764,0.599-1.274,0.836l-25.614,12.615l26.062,12.379c1.23,0.597,1.848,1.435,1.848,2.509
		c0,0.877-0.373,1.495-1.116,1.854c-0.743,0.36-1.857,0.539-3.345,0.539c-1.36,0-2.432-0.101-3.218-0.3
		c-0.786-0.197-1.349-0.398-1.688-0.598l-25.296-12.555v10.643c0,1.155-0.34,1.912-1.021,2.271c-0.679,0.36-1.697,0.539-3.058,0.539
		s-2.369-0.179-3.027-0.539c-0.657-0.358-0.986-1.115-0.986-2.271V72.54c0-1.155,0.329-1.913,0.986-2.271
		c0.658-0.36,1.667-0.539,3.027-0.539s2.379,0.179,3.058,0.539c0.681,0.358,1.021,1.116,1.021,2.271V92.868z M595.491,110.747
		c0,1.155-0.341,1.912-1.021,2.271c-0.679,0.36-1.697,0.539-3.058,0.539c-1.359,0-2.369-0.179-3.025-0.539
		c-0.659-0.358-0.989-1.115-0.989-2.271V82.526c0-1.156,0.33-1.914,0.989-2.274c0.656-0.356,1.666-0.536,3.025-0.536
		c1.36,0,2.379,0.18,3.058,0.536c0.68,0.36,1.021,1.118,1.021,2.274V110.747z M586.38,73.438c0-1.275,0.393-2.212,1.178-2.811
		c0.784-0.599,2.071-0.897,3.855-0.897c1.785,0,3.069,0.299,3.854,0.897c0.787,0.599,1.182,1.535,1.182,2.811
		s-0.395,2.211-1.182,2.81c-0.785,0.598-2.069,0.897-3.854,0.897c-1.784,0-3.071-0.3-3.855-0.897
		C586.772,75.648,586.38,74.713,586.38,73.438"/>
</g>
</svg>
