<?xml version="1.0" encoding="utf-8"?>
<!-- Generator: Adobe Illustrator 16.0.0, SVG Export Plug-In . SVG Version: 6.00 Build 0)  -->
<!DOCTYPE svg PUBLIC "-//W3C//DTD SVG 1.1//EN" "http://www.w3.org/Graphics/SVG/1.1/DTD/svg11.dtd">
<svg version="1.1" xmlns="http://www.w3.org/2000/svg" xmlns:xlink="http://www.w3.org/1999/xlink" x="0px" y="0px" width="315px"
	 height="75px" viewBox="0 0 315 75" enable-background="new 0 0 315 75" xml:space="preserve">
<g id="Layer_3">
	<rect x="6.5" y="20.5" fill="#FFFFFF" stroke="#FFFFFF" stroke-miterlimit="10" width="61" height="32"/>
</g>
<g id="Layer_2">
	<g id="Layer_1">
		<g>
			<g>
				<path fill-rule="evenodd" clip-rule="evenodd" fill="#E2000F" d="M52.809,9.496c19.294,11.139,15.258,7.75,16.367,28.349
					c0,22.278,0.917,17.089-16.367,28.349c-19.294,11.14-14.341,9.339-32.734,0C0.78,55.055,4.816,58.443,3.707,37.845
					c0-22.279-0.917-17.089,16.367-28.349C39.368-1.644,34.415,0.157,52.809,9.496L52.809,9.496z M37.775,30.849v18.823
					c0,0.803,0.21,1.328,0.633,1.577s1.032,0.374,1.827,0.374c0.82,0,1.441-0.125,1.864-0.374c0.422-0.249,0.634-0.774,0.634-1.577
					V39.048l20.317,11.994c0.348,0.222,0.728,0.374,1.137,0.456c0.41,0.084,0.199,0.182,1.043,0.182c0.547,0,1.021-0.16,1.417-0.477
					c0.397-0.317,0.597-0.796,0.597-1.433c0-0.829-0.409-1.445-1.193-1.909L46.311,36.184L66.217,25.02
					c0.796-0.443,1.194-1.079,1.194-1.909c0-0.636-0.199-1.113-0.597-1.432c-0.397-0.318-0.87-0.478-1.417-0.478
					c-0.845,0-1.472,0.042-1.882,0.125c-0.411,0.083-0.789,0.235-1.137,0.457L42.732,33.569V23.153c0-0.803-0.212-1.329-0.634-1.578
					c-0.423-0.249-1.044-0.374-1.864-0.374c-0.795,0-1.404,0.125-1.827,0.374c-0.339,0.2-0.541,0.577-0.608,1.132L24.407,45.838
					L11.11,22.672c-0.578-0.974-1.339-1.461-2.284-1.461c-1.407,0-2.11,0.946-2.11,2.839v25.544c0,0.807,0.164,1.336,0.491,1.586
					c0.328,0.251,0.8,0.376,1.417,0.376c0.636,0,1.117-0.125,1.445-0.376c0.328-0.25,0.491-0.779,0.491-1.586V29.809l11.563,20.16
					c0.308,0.557,0.65,0.961,1.026,1.211c0.376,0.251,0.843,0.376,1.402,0.376c0.501,0,0.925-0.125,1.272-0.376
					c0.347-0.25,0.684-0.654,1.012-1.211L37.775,30.849z"/>
				<path fill-rule="evenodd" clip-rule="evenodd" fill="#A10E06" d="M44.14,71.162c-9.585,5.219-9.152,2.604-24.065-4.969
					C0.78,55.055,4.816,58.443,3.707,37.845c0-14.089-0.365-17.193,3.737-20.418c9.585-5.218,9.152-2.603,24.065,4.969
					c1.817,1.049,3.427,1.969,4.854,2.792l-11.956,20.65L11.11,22.672c-0.578-0.974-1.339-1.461-2.284-1.461
					c-1.407,0-2.11,0.946-2.11,2.839v25.544c0,0.807,0.164,1.336,0.491,1.586c0.328,0.251,0.8,0.376,1.417,0.376
					c0.636,0,1.117-0.125,1.445-0.376c0.328-0.25,0.491-0.779,0.491-1.586V29.809l11.563,20.16c0.308,0.557,0.65,0.961,1.026,1.211
					c0.376,0.251,0.843,0.376,1.402,0.376c0.501,0,0.925-0.125,1.272-0.376c0.347-0.25,0.684-0.654,1.012-1.211l10.939-19.12v18.823
					c0,0.803,0.21,1.328,0.633,1.577s1.032,0.374,1.827,0.374c0.82,0,1.441-0.125,1.864-0.374c0.422-0.249,0.634-0.774,0.634-1.577
					V39.048l4.881,2.882c0.032,2.342,0.068,5.21,0.263,8.814C47.876,64.833,48.241,67.938,44.14,71.162L44.14,71.162z
					 M42.732,29.096v4.474l2.991-1.795C45.028,30.881,44.066,30.034,42.732,29.096L42.732,29.096z M47.293,35.634l-0.982,0.55
					l1.13,0.668C47.402,36.421,47.354,36.017,47.293,35.634z"/>
			</g>
			<path fill-rule="evenodd" clip-rule="evenodd" fill="#1A1A18" d="M116.006,10.384c0.356-0.422,0.751-0.723,1.185-0.901
				s0.918-0.267,1.452-0.267c1.646,0,2.47,0.757,2.47,2.27v20.43c0,0.646-0.189,1.068-0.567,1.269c-0.378,0.201-0.935,0.3-1.669,0.3
				c-0.734,0-1.291-0.1-1.669-0.3c-0.378-0.2-0.568-0.623-0.568-1.269V16.093L103.32,32.217c-0.378,0.445-0.768,0.768-1.168,0.968
				c-0.401,0.201-0.89,0.3-1.469,0.3c-0.646,0-1.185-0.1-1.619-0.3c-0.434-0.2-0.829-0.523-1.185-0.968L84.525,16.093v15.823
				c0,0.646-0.189,1.068-0.567,1.269c-0.378,0.201-0.935,0.3-1.668,0.3c-0.713,0-1.258-0.1-1.636-0.3
				c-0.378-0.2-0.567-0.623-0.567-1.269v-20.43c0-1.513,0.813-2.27,2.437-2.27c1.09,0,1.97,0.389,2.637,1.168l15.356,18.528
				L116.006,10.384L116.006,10.384z M133.198,33.352c-6.298,0-9.447-1.936-9.447-5.809v-1.77c0-3.872,3.149-5.808,9.447-5.808
				h14.288v-0.034c0-0.645-0.417-1.151-1.252-1.519c-0.834-0.367-2.198-0.551-4.089-0.551h-3.138c-0.512,0-0.846-0.139-1.001-0.417
				c-0.156-0.278-0.234-0.695-0.234-1.252c0-0.578,0.078-1.006,0.234-1.285c0.155-0.278,0.489-0.417,1.001-0.417h3.271
				c6.298,0,9.447,1.936,9.447,5.809v7.244c0,3.873-3.149,5.809-9.447,5.809H133.198L133.198,33.352z M142.145,29.98
				c1.869,0,3.227-0.239,4.073-0.718c0.846-0.479,1.269-1.051,1.269-1.719v-4.34h-14.154c-1.87,0-3.228,0.234-4.073,0.701
				c-0.846,0.468-1.269,1.046-1.269,1.736v1.903c0,0.668,0.423,1.241,1.269,1.719c0.845,0.479,2.203,0.718,4.073,0.718H142.145
				L142.145,29.98z M165.68,14.491c0.511,0,0.84,0.145,0.984,0.434s0.217,0.712,0.217,1.268c0,0.557-0.072,0.974-0.217,1.252
				c-0.145,0.279-0.474,0.417-0.984,0.417h-2.604c-1.647,0-2.793,0.211-3.438,0.635c-0.645,0.422-0.969,1.012-0.969,1.769v11.65
				c0,0.646-0.178,1.068-0.533,1.269c-0.356,0.201-0.891,0.3-1.603,0.3s-1.241-0.1-1.585-0.3c-0.345-0.2-0.518-0.623-0.518-1.269
				v-11.65c0-1.936,0.74-3.383,2.22-4.34c1.479-0.957,3.622-1.436,6.426-1.436H165.68L165.68,14.491z M177.764,33.352
				c-6.298,0-9.447-1.936-9.447-5.809v-7.244c0-3.873,3.149-5.809,9.447-5.809h16.691c0.512,0,0.846,0.139,1.002,0.417
				c0.155,0.279,0.233,0.707,0.233,1.285c0,0.557-0.078,0.974-0.233,1.252c-0.156,0.279-0.49,0.417-1.002,0.417h-16.558
				c-1.869,0-3.227,0.234-4.073,0.701c-0.845,0.467-1.269,1.046-1.269,1.736v7.244c0,0.668,0.424,1.241,1.269,1.719
				c0.847,0.479,2.204,0.718,4.073,0.718h16.658c0.512,0,0.84,0.139,0.985,0.417c0.145,0.278,0.217,0.695,0.217,1.251
				s-0.072,0.979-0.217,1.269c-0.146,0.289-0.474,0.434-0.985,0.434H177.764L177.764,33.352z M202.668,31.917
				c0,0.646-0.179,1.068-0.534,1.269c-0.356,0.201-0.891,0.3-1.603,0.3c-0.713,0-1.241-0.1-1.586-0.3
				c-0.345-0.2-0.518-0.623-0.518-1.269V16.16c0-0.646,0.173-1.068,0.518-1.269c0.345-0.2,0.873-0.3,1.586-0.3
				c0.712,0,1.246,0.1,1.603,0.3c0.355,0.201,0.534,0.623,0.534,1.269V31.917L202.668,31.917z M197.894,11.086
				c0-0.712,0.206-1.235,0.618-1.569c0.411-0.334,1.085-0.501,2.02-0.501s1.607,0.167,2.02,0.501
				c0.412,0.333,0.617,0.856,0.617,1.569c0,0.712-0.205,1.235-0.617,1.569s-1.085,0.5-2.02,0.5s-1.608-0.167-2.02-0.5
				C198.1,12.321,197.894,11.798,197.894,11.086L197.894,11.086z M207.774,33.485c-0.712,0-1.24-0.1-1.585-0.3
				c-0.346-0.2-0.518-0.623-0.518-1.269V20.299c0-3.873,3.149-5.809,9.447-5.809h7.277c6.298,0,9.447,1.936,9.447,5.809v11.617
				c0,0.646-0.178,1.068-0.534,1.269c-0.355,0.201-0.89,0.3-1.603,0.3c-0.712,0-1.24-0.1-1.585-0.3
				c-0.346-0.2-0.518-0.623-0.518-1.269V20.299c0-0.69-0.423-1.269-1.269-1.736s-2.203-0.701-4.072-0.701h-7.011
				c-1.87,0-3.228,0.234-4.073,0.701c-0.845,0.467-1.269,1.046-1.269,1.736v11.617c0,0.646-0.178,1.068-0.534,1.269
				C209.021,33.386,208.487,33.485,207.774,33.485z"/>
			<path fill-rule="evenodd" clip-rule="evenodd" fill="#E2000F" d="M84.525,49.738l17.593-9.48
				c0.312-0.178,0.651-0.301,1.019-0.367c0.367-0.066,0.929-0.1,1.686-0.1c0.49,0,0.913,0.127,1.269,0.383
				c0.356,0.256,0.534,0.641,0.534,1.152c0,0.668-0.356,1.18-1.068,1.535l-17.826,8.98l18.427,9.348
				c0.712,0.355,1.068,0.867,1.068,1.535c0,0.512-0.178,0.896-0.534,1.151c-0.356,0.257-0.779,0.384-1.269,0.384
				c-0.757,0-1.318-0.033-1.686-0.1c-0.367-0.067-0.707-0.189-1.018-0.367l-18.194-9.647v8.546c0,0.645-0.189,1.068-0.567,1.268
				c-0.378,0.201-0.935,0.301-1.668,0.301c-0.713,0-1.258-0.1-1.636-0.301c-0.378-0.199-0.567-0.623-0.567-1.268V41.359
				c0-0.645,0.189-1.068,0.567-1.269s0.923-0.3,1.636-0.3c0.734,0,1.291,0.1,1.668,0.3c0.378,0.2,0.567,0.624,0.567,1.269V49.738
				L84.525,49.738z M133.265,45.132c0.712,0,1.241,0.101,1.586,0.3c0.344,0.201,0.517,0.623,0.517,1.27v11.617
				c0,3.872-3.149,5.809-9.447,5.809h-7.979c-6.298,0-9.447-1.937-9.447-5.809V46.701c0-0.646,0.178-1.068,0.534-1.27
				c0.356-0.199,0.89-0.3,1.602-0.3c0.712,0,1.241,0.101,1.586,0.3c0.345,0.201,0.517,0.623,0.517,1.27v11.617
				c0,0.689,0.423,1.268,1.269,1.735c0.846,0.468,2.204,0.701,4.073,0.701h7.712c1.869,0,3.227-0.233,4.073-0.701
				c0.845-0.468,1.269-1.046,1.269-1.735V46.701c0-0.646,0.178-1.068,0.534-1.27C132.019,45.232,132.553,45.132,133.265,45.132
				L133.265,45.132z M149.489,45.266c0.512,0,0.84,0.145,0.985,0.434c0.145,0.289,0.217,0.712,0.217,1.269s-0.073,0.974-0.217,1.252
				c-0.145,0.278-0.473,0.417-0.985,0.417h-2.604c-1.646,0-2.793,0.212-3.438,0.635c-0.646,0.422-0.968,1.013-0.968,1.77v11.65
				c0,0.645-0.178,1.068-0.535,1.268c-0.356,0.201-0.89,0.301-1.602,0.301c-0.712,0-1.241-0.1-1.586-0.301
				c-0.345-0.199-0.517-0.623-0.517-1.268v-11.65c0-1.937,0.74-3.383,2.22-4.34c1.48-0.957,3.622-1.436,6.426-1.436H149.489
				L149.489,45.266z M157.1,68.166c0,0.646-0.177,1.068-0.534,1.269c-0.356,0.2-0.89,0.3-1.602,0.3c-0.712,0-1.24-0.1-1.585-0.3
				s-0.518-0.623-0.518-1.269V51.074c0-3.873,3.149-5.809,9.447-5.809h8.013c6.298,0,9.446,1.936,9.446,5.809v7.244
				c0,3.872-3.148,5.809-9.446,5.809H157.1V68.166L157.1,68.166z M170.187,60.755c1.869,0,3.227-0.233,4.072-0.701
				s1.269-1.046,1.269-1.735v-7.244c0-0.668-0.423-1.24-1.269-1.719s-2.203-0.719-4.072-0.719h-7.745
				c-1.869,0-3.227,0.24-4.073,0.719c-0.845,0.479-1.269,1.051-1.269,1.719v9.681H170.187L170.187,60.755z M186.844,62.691
				c0,0.645-0.178,1.068-0.534,1.268c-0.355,0.201-0.89,0.301-1.603,0.301c-0.712,0-1.24-0.1-1.586-0.301
				c-0.344-0.199-0.517-0.623-0.517-1.268V46.934c0-0.645,0.173-1.067,0.517-1.268c0.346-0.2,0.874-0.301,1.586-0.301
				c0.713,0,1.247,0.101,1.603,0.301c0.356,0.2,0.534,0.623,0.534,1.268V62.691L186.844,62.691z M182.07,41.86
				c0-0.712,0.206-1.235,0.618-1.569c0.411-0.334,1.084-0.5,2.019-0.5c0.936,0,1.608,0.166,2.021,0.5
				c0.411,0.334,0.617,0.857,0.617,1.569s-0.206,1.235-0.617,1.569c-0.412,0.334-1.085,0.5-2.021,0.5
				c-0.935,0-1.607-0.166-2.019-0.5C182.276,43.096,182.07,42.572,182.07,41.86L182.07,41.86z M193.921,56.615v1.703
				c0,0.668,0.423,1.24,1.269,1.719s2.203,0.718,4.072,0.718h3.839c0.513,0,0.841,0.139,0.985,0.417s0.217,0.695,0.217,1.252
				s-0.072,0.979-0.217,1.269c-0.145,0.29-0.473,0.435-0.985,0.435h-3.972c-6.298,0-9.447-1.937-9.447-5.809v-7.244
				c0-3.873,3.149-5.809,9.447-5.809h7.711c3.339,0,5.748,0.479,7.228,1.436c1.48,0.957,2.22,2.414,2.22,4.373v3.838
				c0,0.646-0.122,1.092-0.367,1.336c-0.245,0.245-0.79,0.367-1.636,0.367H193.921L193.921,56.615z M193.921,53.311h18.127v-2.236
				c0-0.779-0.417-1.381-1.252-1.803c-0.835-0.423-2.197-0.635-4.089-0.635h-7.445c-1.869,0-3.227,0.234-4.072,0.701
				c-0.846,0.468-1.269,1.046-1.269,1.736V53.311L193.921,53.311z M229.674,63.125c-0.4,0.757-1.201,1.135-2.403,1.135
				c-0.601,0-1.118-0.094-1.553-0.283c-0.434-0.189-0.751-0.495-0.951-0.918l-7.678-16.091c-0.134-0.223-0.2-0.435-0.2-0.634
				c0-0.379,0.211-0.674,0.635-0.885c0.422-0.212,0.979-0.317,1.669-0.317c0.979,0,1.58,0.256,1.803,0.769l6.242,14.021
				l7.011-13.487c0.267-0.512,0.55-0.857,0.851-1.035s0.74-0.267,1.318-0.267c0.334,0,0.606,0.028,0.818,0.083
				c0.211,0.056,0.39,0.134,0.534,0.234c0.145,0.1,0.272,0.233,0.384,0.4s0.223,0.361,0.334,0.584l6.743,13.487l6.376-14.021
				c0.223-0.513,0.835-0.769,1.836-0.769c0.69,0,1.247,0.105,1.669,0.317c0.423,0.211,0.635,0.506,0.635,0.885
				c0,0.199-0.067,0.411-0.2,0.634l-7.879,16.091c-0.2,0.423-0.517,0.729-0.951,0.918c-0.434,0.189-0.939,0.283-1.519,0.283
				c-0.557,0-1.052-0.089-1.486-0.267c-0.434-0.179-0.75-0.468-0.951-0.868l-6.409-13.02L229.674,63.125L229.674,63.125z
				 M257.215,50.272c0-1.558,0.668-2.782,2.003-3.672s3.316-1.335,5.942-1.335h4.573c0.512,0,0.846,0.139,1.002,0.417
				c0.155,0.278,0.233,0.706,0.233,1.285c0,0.557-0.078,0.974-0.233,1.252c-0.156,0.278-0.49,0.417-1.002,0.417h-4.606
				c-1.269,0-2.204,0.15-2.804,0.451c-0.602,0.301-0.902,0.707-0.902,1.219v0.867c0,0.512,0.312,0.924,0.936,1.235
				c0.622,0.312,1.602,0.468,2.938,0.468h7.378c3.115,0,5.362,0.445,6.742,1.335c1.381,0.891,2.07,2.137,2.07,3.739v1.068
				c0,0.801-0.178,1.518-0.534,2.152s-0.912,1.169-1.669,1.603c-0.757,0.435-1.736,0.769-2.938,1.001
				c-1.202,0.234-2.638,0.352-4.307,0.352h-13.521c-0.512,0-0.845-0.14-1.001-0.418c-0.155-0.277-0.233-0.706-0.233-1.285
				c0-0.557,0.078-0.974,0.233-1.252c0.156-0.278,0.489-0.417,1.001-0.417h14.155c0.89,0,1.63-0.038,2.22-0.116
				s1.057-0.189,1.401-0.334c0.346-0.145,0.584-0.317,0.718-0.518c0.134-0.201,0.2-0.435,0.2-0.701v-1.202
				c0-0.267-0.066-0.501-0.2-0.7c-0.134-0.201-0.367-0.379-0.7-0.535c-0.334-0.155-0.785-0.272-1.353-0.35
				c-0.567-0.078-1.285-0.117-2.153-0.117h-7.478c-2.692,0-4.718-0.439-6.076-1.318c-1.357-0.879-2.036-2.087-2.036-3.622V50.272
				L257.215,50.272z M288.228,52.709l13.687-7.21c0.29-0.155,0.618-0.256,0.985-0.3c0.367-0.045,0.896-0.067,1.586-0.067
				c0.445,0,0.828,0.101,1.151,0.3c0.322,0.201,0.484,0.513,0.484,0.936c0,0.311-0.089,0.557-0.268,0.734
				c-0.178,0.178-0.4,0.334-0.667,0.467l-13.42,7.044l13.653,6.911c0.646,0.334,0.968,0.801,0.968,1.401
				c0,0.489-0.195,0.835-0.584,1.034c-0.39,0.201-0.974,0.301-1.753,0.301c-0.712,0-1.273-0.055-1.686-0.167
				c-0.412-0.11-0.707-0.222-0.885-0.333l-13.253-7.011v5.942c0,0.645-0.178,1.068-0.534,1.268c-0.356,0.201-0.89,0.301-1.603,0.301
				c-0.712,0-1.24-0.1-1.586-0.301c-0.344-0.199-0.517-0.623-0.517-1.268V41.359c0-0.645,0.173-1.068,0.517-1.269
				c0.346-0.2,0.874-0.3,1.586-0.3c0.713,0,1.246,0.1,1.603,0.3s0.534,0.624,0.534,1.269V52.709L288.228,52.709z M312.831,62.691
				c0,0.645-0.179,1.068-0.534,1.268c-0.356,0.201-0.891,0.301-1.603,0.301c-0.713,0-1.241-0.1-1.586-0.301
				c-0.345-0.199-0.518-0.623-0.518-1.268V46.934c0-0.645,0.173-1.067,0.518-1.268s0.873-0.301,1.586-0.301
				c0.712,0,1.246,0.101,1.603,0.301c0.355,0.2,0.534,0.623,0.534,1.268V62.691L312.831,62.691z M308.057,41.86
				c0-0.712,0.206-1.235,0.618-1.569c0.411-0.334,1.085-0.5,2.02-0.5s1.607,0.166,2.02,0.5s0.617,0.857,0.617,1.569
				s-0.205,1.235-0.617,1.569s-1.085,0.5-2.02,0.5s-1.608-0.166-2.02-0.5C308.263,43.096,308.057,42.572,308.057,41.86z"/>
		</g>
	</g>
</g>
</svg>
