<?xml version="1.0" encoding="utf-8"?>
<!-- Generator: Adobe Illustrator 16.0.0, SVG Export Plug-In . SVG Version: 6.00 Build 0)  -->
<!DOCTYPE svg PUBLIC "-//W3C//DTD SVG 1.1//EN" "http://www.w3.org/Graphics/SVG/1.1/DTD/svg11.dtd">
<svg version="1.1" xmlns="http://www.w3.org/2000/svg" xmlns:xlink="http://www.w3.org/1999/xlink" x="0px" y="0px" width="70px"
	 height="75px" viewBox="0 0 70 75" enable-background="new 0 0 70 75" xml:space="preserve">
<g id="Layer_2">
	<rect x="3" y="21" fill="#FFFFFF" width="62" height="32"/>
</g>
<g id="Layer_1">
	<g>
		<path fill-rule="evenodd" clip-rule="evenodd" fill="#E2000F" d="M50.478,9.496c19.294,11.139,15.258,7.75,16.367,28.349
			c0,22.278,0.917,17.089-16.367,28.349c-19.294,11.14-14.341,9.339-32.734,0C-1.551,55.055,2.485,58.443,1.376,37.845
			c0-22.279-0.917-17.089,16.367-28.349C37.037-1.644,32.084,0.157,50.478,9.496L50.478,9.496z M35.444,30.849v18.823
			c0,0.803,0.21,1.328,0.632,1.577c0.424,0.249,1.032,0.374,1.827,0.374c0.82,0,1.441-0.125,1.864-0.374
			c0.422-0.249,0.634-0.774,0.634-1.577V39.048l20.317,11.994c0.348,0.222,0.728,0.374,1.137,0.456
			c0.409,0.084,0.198,0.182,1.043,0.182c0.547,0,1.021-0.16,1.416-0.477c0.398-0.317,0.598-0.796,0.598-1.433
			c0-0.829-0.41-1.445-1.193-1.909L43.98,36.184L63.887,25.02c0.795-0.443,1.193-1.079,1.193-1.909c0-0.636-0.199-1.113-0.597-1.432
			c-0.397-0.318-0.87-0.478-1.417-0.478c-0.846,0-1.473,0.042-1.883,0.125s-0.789,0.235-1.137,0.457L40.401,33.569V23.153
			c0-0.803-0.212-1.329-0.634-1.578c-0.423-0.249-1.044-0.374-1.864-0.374c-0.795,0-1.403,0.125-1.827,0.374
			c-0.338,0.2-0.541,0.577-0.607,1.132L22.076,45.838L8.779,22.672c-0.578-0.974-1.339-1.461-2.284-1.461
			c-1.407,0-2.11,0.946-2.11,2.839v25.544c0,0.807,0.164,1.336,0.491,1.586c0.328,0.251,0.8,0.376,1.417,0.376
			c0.636,0,1.117-0.125,1.445-0.376c0.328-0.25,0.491-0.779,0.491-1.586V29.809l11.563,20.16c0.308,0.557,0.65,0.961,1.026,1.211
			c0.376,0.251,0.843,0.376,1.402,0.376c0.501,0,0.925-0.125,1.272-0.376c0.347-0.25,0.684-0.654,1.012-1.211L35.444,30.849z"/>
		<path fill-rule="evenodd" clip-rule="evenodd" fill="#A10E06" d="M41.809,71.162c-9.585,5.219-9.152,2.604-24.065-4.969
			C-1.551,55.055,2.485,58.443,1.376,37.845c0-14.089-0.365-17.193,3.737-20.418c9.585-5.218,9.152-2.603,24.065,4.969
			c1.817,1.049,3.427,1.969,4.854,2.792l-11.956,20.65L8.779,22.672c-0.578-0.974-1.339-1.461-2.284-1.461
			c-1.407,0-2.11,0.946-2.11,2.839v25.544c0,0.807,0.164,1.336,0.491,1.586c0.328,0.251,0.8,0.376,1.417,0.376
			c0.636,0,1.117-0.125,1.445-0.376c0.328-0.25,0.491-0.779,0.491-1.586V29.809l11.563,20.16c0.308,0.557,0.65,0.961,1.026,1.211
			c0.376,0.251,0.843,0.376,1.402,0.376c0.501,0,0.925-0.125,1.272-0.376c0.347-0.25,0.684-0.654,1.012-1.211l10.939-19.12v18.823
			c0,0.803,0.21,1.328,0.632,1.577c0.424,0.249,1.032,0.374,1.827,0.374c0.82,0,1.441-0.125,1.864-0.374
			c0.422-0.249,0.634-0.774,0.634-1.577V39.048l4.882,2.882c0.031,2.342,0.068,5.21,0.262,8.814
			C45.545,64.833,45.91,67.938,41.809,71.162L41.809,71.162z M40.401,29.096v4.474l2.991-1.795
			C42.697,30.881,41.734,30.034,40.401,29.096L40.401,29.096z M44.962,35.634l-0.981,0.55l1.129,0.668
			C45.071,36.421,45.022,36.017,44.962,35.634z"/>
	</g>
</g>
</svg>
